# xmcd CD database file
#
# Track frame offsets:
#	150
#	21100
#	44449
#	65466
#	85019
#	104680
#	124321
#	145794
#	167479
#	188118
#	209304
#	241010
#
# Disc length: 3533 seconds
#
# Revision: 0
# Processed by: cddbd v1.5.1PL0 Copyright (c) Steve Scherf et al.
# Submitted via: CDex 1.51
#
DISCID=a00dcb0c
DTITLE=King Bongò - Fiebre de Salsa Y Boogaloo
DYEAR=2005
DGENRE=Salsa
TTITLE0=The percussion
TTITLE1=Cògela el golpe
TTITLE2=King Bongò
TTITLE3=La loteria
TTITLE4=El negro Bembòn - Maquinolandera
TTITLE5=Levàntate bailador
TTITLE6=La rumba va a comenzar
TTITLE7=No te quedes sin bailar
TTITLE8=!Ajà! y qué?
TTITLE9=La rumba en el cielo
TTITLE10=Cumbia boogaloo
TTITLE11=La loteria (Video interactivo)
EXTD=YEAR: 2005
EXTT0=
EXTT1=
EXTT2=
EXTT3=
EXTT4=
EXTT5=
EXTT6=
EXTT7=
EXTT8=
EXTT9=
EXTT10=
EXTT11=
PLAYORDER=
